<svg width="155" height="42" viewBox="0 0 155 42" fill="none" xmlns="http://www.w3.org/2000/svg">
<g clip-path="url(#clip0_42758_660)">
<mask id="mask0_42758_660" style="mask-type:luminance" maskUnits="userSpaceOnUse" x="0" y="0" width="42" height="42">
<path d="M42 0H0V42H42V0Z" fill="white"/>
</mask>
<g mask="url(#mask0_42758_660)">
<path fill-rule="evenodd" clip-rule="evenodd" d="M22.5 0H19.5V13.2832L14.524 0.967222L11.7425 2.09104L16.8474 14.726L7.21142 5.09009L5.09011 7.21142L14.3257 16.447L2.35706 11.2178L1.15596 13.9669L13.8202 19.5H0V22.5H13.8202L1.15597 28.0331L2.35706 30.7822L14.3257 25.553L5.09011 34.7886L7.21142 36.9098L16.8474 27.274L11.7425 39.909L14.524 41.0327L19.5 28.7169V42H22.5V28.7169L27.476 41.0327L30.2574 39.909L25.1528 27.274L34.7886 36.9098L36.9098 34.7886L27.6742 25.553L39.643 30.7822L40.8439 28.0331L28.1799 22.5H42V19.5H28.1797L40.8439 13.9669L39.643 11.2178L27.6742 16.447L36.9098 7.2114L34.7886 5.09009L25.1528 14.726L30.2574 2.09104L27.476 0.967222L22.5 13.2832V0Z" fill="#1C65DA"/>
</g>
</g>
<path d="M69.416 10.6C71.464 10.6 72.9893 11.08 73.992 12.04C74.9947 13 75.496 14.4187 75.496 16.296C75.496 17.2987 75.2507 18.184 74.76 18.952C74.2693 19.6987 73.544 20.2853 72.584 20.712C71.624 21.1173 70.44 21.32 69.032 21.32L69.16 19.88C69.8213 19.88 70.5787 19.976 71.432 20.168C72.2853 20.3387 73.1067 20.6587 73.896 21.128C74.7067 21.576 75.368 22.216 75.88 23.048C76.4133 23.8587 76.68 24.904 76.68 26.184C76.68 27.592 76.4453 28.744 75.976 29.64C75.528 30.536 74.9307 31.2293 74.184 31.72C73.4373 32.2107 72.6373 32.552 71.784 32.744C70.9307 32.9147 70.1093 33 69.32 33H61.352C60.7973 33 60.328 32.8187 59.944 32.456C59.5813 32.072 59.4 31.6027 59.4 31.048V12.552C59.4 11.9973 59.5813 11.5387 59.944 11.176C60.328 10.792 60.7973 10.6 61.352 10.6H69.416ZM68.84 14.376H63.144L63.56 13.864V19.656L63.176 19.368H68.936C69.5547 19.368 70.1093 19.1653 70.6 18.76C71.0907 18.3547 71.336 17.768 71.336 17C71.336 16.0827 71.1013 15.4213 70.632 15.016C70.184 14.5893 69.5867 14.376 68.84 14.376ZM69.096 23.144H63.272L63.56 22.888V29.64L63.24 29.32H69.32C70.3013 29.32 71.08 29.064 71.656 28.552C72.232 28.0187 72.52 27.2293 72.52 26.184C72.52 25.224 72.328 24.5307 71.944 24.104C71.56 23.6773 71.1013 23.4107 70.568 23.304C70.0347 23.1973 69.544 23.144 69.096 23.144ZM96.6255 24.456C96.6255 26.2053 96.2308 27.752 95.4415 29.096C94.6735 30.4187 93.6282 31.4533 92.3055 32.2C91.0042 32.9467 89.5428 33.32 87.9215 33.32C86.3002 33.32 84.8282 32.9467 83.5055 32.2C82.2042 31.4533 81.1588 30.4187 80.3695 29.096C79.6015 27.752 79.2175 26.2053 79.2175 24.456C79.2175 22.7067 79.6015 21.1707 80.3695 19.848C81.1588 18.504 82.2042 17.4587 83.5055 16.712C84.8282 15.944 86.3002 15.56 87.9215 15.56C89.5428 15.56 91.0042 15.944 92.3055 16.712C93.6282 17.4587 94.6735 18.504 95.4415 19.848C96.2308 21.1707 96.6255 22.7067 96.6255 24.456ZM92.7855 24.456C92.7855 23.368 92.5615 22.4293 92.1135 21.64C91.6868 20.8293 91.1002 20.2 90.3535 19.752C89.6282 19.304 88.8175 19.08 87.9215 19.08C87.0255 19.08 86.2042 19.304 85.4575 19.752C84.7322 20.2 84.1455 20.8293 83.6975 21.64C83.2708 22.4293 83.0575 23.368 83.0575 24.456C83.0575 25.5227 83.2708 26.4613 83.6975 27.272C84.1455 28.0613 84.7322 28.68 85.4575 29.128C86.2042 29.576 87.0255 29.8 87.9215 29.8C88.8175 29.8 89.6282 29.576 90.3535 29.128C91.1002 28.68 91.6868 28.0613 92.1135 27.272C92.5615 26.4613 92.7855 25.5227 92.7855 24.456ZM116.594 24.456C116.594 26.2053 116.2 27.752 115.41 29.096C114.642 30.4187 113.597 31.4533 112.274 32.2C110.973 32.9467 109.512 33.32 107.89 33.32C106.269 33.32 104.797 32.9467 103.474 32.2C102.173 31.4533 101.128 30.4187 100.338 29.096C99.5703 27.752 99.1863 26.2053 99.1863 24.456C99.1863 22.7067 99.5703 21.1707 100.338 19.848C101.128 18.504 102.173 17.4587 103.474 16.712C104.797 15.944 106.269 15.56 107.89 15.56C109.512 15.56 110.973 15.944 112.274 16.712C113.597 17.4587 114.642 18.504 115.41 19.848C116.2 21.1707 116.594 22.7067 116.594 24.456ZM112.754 24.456C112.754 23.368 112.53 22.4293 112.082 21.64C111.656 20.8293 111.069 20.2 110.322 19.752C109.597 19.304 108.786 19.08 107.89 19.08C106.994 19.08 106.173 19.304 105.426 19.752C104.701 20.2 104.114 20.8293 103.666 21.64C103.24 22.4293 103.026 23.368 103.026 24.456C103.026 25.5227 103.24 26.4613 103.666 27.272C104.114 28.0613 104.701 28.68 105.426 29.128C106.173 29.576 106.994 29.8 107.89 29.8C108.786 29.8 109.597 29.576 110.322 29.128C111.069 28.68 111.656 28.0613 112.082 27.272C112.53 26.4613 112.754 25.5227 112.754 24.456ZM122.195 33C121.64 33 121.182 32.8187 120.819 32.456C120.456 32.072 120.275 31.6027 120.275 31.048V11.272C120.275 10.7173 120.456 10.2587 120.819 9.896C121.182 9.512 121.64 9.32 122.195 9.32C122.75 9.32 123.208 9.512 123.571 9.896C123.934 10.2587 124.115 10.7173 124.115 11.272V31.048C124.115 31.6027 123.934 32.072 123.571 32.456C123.208 32.8187 122.75 33 122.195 33ZM132.371 15.88C132.862 15.88 133.288 16.0827 133.651 16.488C134.014 16.8933 134.195 17.288 134.195 17.672C134.195 18.184 133.939 18.664 133.427 19.112L123.795 27.976L123.635 23.56L130.963 16.488C131.368 16.0827 131.838 15.88 132.371 15.88ZM132.851 32.968C132.296 32.968 131.827 32.7547 131.443 32.328L125.523 26.056L128.435 23.368L134.195 29.64C134.6 30.0667 134.803 30.5467 134.803 31.08C134.803 31.6347 134.579 32.0933 134.131 32.456C133.704 32.7973 133.278 32.968 132.851 32.968ZM150.878 15.88C151.432 15.88 151.891 16.072 152.254 16.456C152.616 16.8187 152.798 17.2773 152.798 17.832V31.432C152.798 33.3947 152.424 34.952 151.678 36.104C150.952 37.2773 149.971 38.12 148.734 38.632C147.496 39.144 146.11 39.4 144.574 39.4C143.891 39.4 143.166 39.3467 142.398 39.24C141.63 39.1333 141 38.9733 140.51 38.76C139.87 38.4827 139.422 38.1307 139.166 37.704C138.931 37.2987 138.888 36.8613 139.038 36.392C139.23 35.7733 139.539 35.3467 139.966 35.112C140.392 34.8987 140.84 34.8773 141.31 35.048C141.651 35.1547 142.099 35.3147 142.654 35.528C143.208 35.7627 143.848 35.88 144.574 35.88C145.555 35.88 146.366 35.7413 147.006 35.464C147.667 35.208 148.158 34.76 148.478 34.12C148.819 33.5013 148.99 32.648 148.99 31.56V29.416L149.662 30.184C149.299 30.888 148.84 31.4747 148.286 31.944C147.752 32.392 147.112 32.7333 146.366 32.968C145.619 33.2027 144.766 33.32 143.806 33.32C142.675 33.32 141.683 33.064 140.83 32.552C139.998 32.0187 139.347 31.2933 138.878 30.376C138.408 29.4373 138.174 28.3707 138.174 27.176V17.832C138.174 17.2773 138.355 16.8187 138.718 16.456C139.08 16.072 139.539 15.88 140.094 15.88C140.648 15.88 141.107 16.072 141.47 16.456C141.832 16.8187 142.014 17.2773 142.014 17.832V26.024C142.014 27.4107 142.312 28.392 142.91 28.968C143.528 29.5227 144.382 29.8 145.47 29.8C146.216 29.8 146.846 29.6613 147.358 29.384C147.87 29.0853 148.264 28.6587 148.542 28.104C148.819 27.528 148.958 26.8347 148.958 26.024V17.832C148.958 17.2773 149.139 16.8187 149.502 16.456C149.864 16.072 150.323 15.88 150.878 15.88Z" fill="#0A0D12"/>
<defs>
<clipPath id="clip0_42758_660">
<rect width="42" height="42" fill="white"/>
</clipPath>
</defs>
</svg>
